<?xml version="1.0" encoding="UTF-8"?><svg id="a" xmlns="http://www.w3.org/2000/svg" width="500" height="500" viewBox="0 0 500 500"><path d="M384.05,141.8c6.21-2.47,11.46-1.17,15.76,3.9,3.25,3.84,5.71,7.87,7.38,12.11.36.92,1.04,1.69,1.92,2.17l9.46,5.11c.07.03.13.08.19.13,5.92,5.1,6.83,10.94,2.72,17.52l-6.08,7.7c-.27.34-.46.73-.57,1.15-2.03,7.78-4.86,15.4-8.47,22.85-4.06,8.4-6.24,12.85-6.53,13.37-3.43,6.14-7.81,12.73-13.13,19.75-2.73,3.61-7.26,8.32-10.1,10.96-7.04,6.59-14.91,11.82-23.61,15.71-.35.16-.54.54-.46.92,3.58,15.84,15.34,30.05,27.73,40.47,2.1,1.77,5.91,4.63,11.43,8.58,2.76,1.48,5.61,2.96,8.57,4.42,4.29,2.12,8.44,3.53,12.06,6.27,4.95,3.76,5.95,12.04,4.51,17.69-5.95,23.27-30.5,36.81-53.38,40.65-6.43,1.08-12.98.75-19.66-1.01-.43-.11-.87.15-.98.58-.01.05-.02.1-.02.16-.08,1.71-.12,3.07-.13,4.06-.03,5.36-1.49,10.41-4.39,15.14-3.95,6.45-9.42,11.17-16.41,14.16-12.74,5.45-25.33,6.51-37.77,3.2-12.77-3.4-22.27-5.72-28.49-6.97-15.65-3.12-28.16-4.97-40.86-12.37-2.78-1.62-5.53-4.04-8.01-6.41-.29-.28-.71-.37-1.08-.25-7.03,2.26-13.01,4.13-17.95,5.62-5.88,1.77-11.8,2.44-17.75,2-16.44-1.22-27.53-12.54-31.61-28.04-1.81-6.81-2.15-14-1.03-21.57.85-5.74,1.39-9.27,1.62-10.59,2.15-12.51,2.96-26.3,2.4-36.92-.46-8.56-.88-15.87-1.27-21.94-.04-.64-.38-1.22-.91-1.56-13.68-8.8-25.42-19.54-35.22-32.21-6.12-7.9-11.21-15.4-14.88-23.55-.16-.35-.98-1.8-2.45-4.35-.62-1.07-1.67-1.82-2.89-2.07l-6.57-1.36c-3.61-.84-6.83-2.23-9.67-4.17-1.61-1.1-2.8-3.03-4.26-4.45-.73-.71-1.77-1.03-2.77-.85-10.34,1.86-21.52,3.09-30.11-4.46-4.71-4.15-6.54-9.06-5.32-15.1.62-3.07,2.23-5.74,4.81-7.99,5.32-4.65,11.42-5.65,18.54-5.36.17,0,.31-.13.31-.3,0-.08-.03-.15-.08-.21-8.35-9.43-15.06-21.18-9.33-34.06,3.62-8.14,12.33-14.06,21.14-9.67,2.48,1.24,4.52,2.67,6.09,4.3,6.53,6.75,11.5,14.63,14.9,23.64.43,1.13,1.44,2.2,3.04,3.19,2.18.73,4.42.94,6.73.64.26-.03.49-.16.65-.36l2.83-3.53c2.87-3.35,5.74-6.53,8.6-9.53,3.64-3.84,8.48-6.1,13.75-5,12.87,2.7,13.18,20.1,9.93,29.51-1.8,5.2-4.45,9.66-7.95,13.39-1.9,2.02-3.03,3.54-3.41,4.57-1.51,4.08-.82,7.9,2.09,11.44,5.22,6.36,11.4,11.39,18.56,15.1.22.12.49.03.61-.19.03-.05.05-.11.05-.17.35-4.38.93-9.94,1.72-16.67,1.69-14.36,3.83-26.48,6.41-36.37,1.69-6.48,3.62-12.43,5.77-17.85,2.99-7.51,6.23-14.57,9.74-21.19,2.1-3.98,4.13-7.27,6.09-9.85,3.24-4.3,5.97-8.65,9.37-12.32,16.06-17.3,38.7-30.2,62.23-32.78,9.75-1.06,19.46-1.03,29.12.1,10.5,1.23,20.62,4.29,30.33,9.17,9.67,4.86,18.3,10.99,25.88,18.38,16.07,15.66,25.67,34.49,28.82,56.5.53,3.71.84,8.24.92,13.58.09,5.55.04,10.09-.16,13.62-.62,11.32-.94,18-.94,20.04,0,.46.37.84.83.84.05,0,.1,0,.15-.01.8-.14,1.64-.44,2.53-.92,5.74-3.06,10.61-6.64,14.61-10.74,2.96-3.03,6.3-6.94,10.02-11.71,3-3.86,3.53-7.88,1.58-12.06-2.65-5.67-4.61-11.31-5.88-16.9-1.9-8.37.78-14.51,8.03-18.44ZM203.64,101.33c-4.51,2.62-9.07,4.95-13.07,8.24-3.18,2.62-5.29,4.48-6.33,5.58-7.82,8.28-13.73,16.16-17.72,23.64-8.27,15.5-13.84,32.4-16.68,50.7-4.7,30.22-5.56,62.18-2.47,93.37,1.59,16.03,1.94,33.79,1.05,53.28-.27,5.98-2.94,15.96-3.76,23.97-1.28,12.42-.49,23.24,7.03,33.52,2.21,3.02,5.44,5.57,9.68,7.64,6.07,2.08,12.53,2.36,19.36.83,7.17-1.59,13.79-4,19.85-7.21.55-.29.76-.96.47-1.5-.02-.03-.03-.06-.05-.09-1.07-1.64-2.11-3.15-2.89-4.91-5.12-11.37-10.91-23.23-17.36-35.59-1.87-3.59-2.96-6.95-3.06-11.05,0-.23.17-.42.4-.43.13,0,.25.05.33.15l.84,1.02c5.85,8.11,10.38,15.4,13.6,21.87,3.99,8.02,7.94,16.05,11.86,24.1,2.36,4.83,6.24,9.39,11.66,13.69,7.08,5.06,14.78,8.27,23.09,9.65,13.04,2.16,22.41,3.89,28.11,5.19,6.02,1.38,13.1,3.93,18.13,5.05,11.11,2.48,21.75,1.78,31.91-2.1,5.22-1.99,9.43-4.94,12.64-8.84,4.02-4.91,4.76-10.2,4.84-16.56.02-2.16-.21-3.93-.71-5.32-2.71-7.59-6.22-13.7-11.5-20.33-4.19-5.27-8.18-10.9-12.63-16.06-1.24-1.44-2.44-3.29-3.6-5.55-.07-.13-.01-.29.12-.36.07-.04.16-.04.24,0,1.16.55,1.92,2.22,2.94,3.29,11.97,12.5,20.38,21.61,33.01,29.16,6.96,4.17,13.6,5.75,21.64,5.18,3.67-.25,6.44-.61,8.3-1.07,15.31-3.81,29.75-13.64,36.05-28.26.67-1.55,1.14-3.65,1.41-6.29.5-4.84-1.26-8.38-5.27-10.62-10.71-5.98-18.11-10.28-22.2-12.9-2.44-1.57-5.58-4.07-9.41-7.51-5.97-5.37-10.38-9.57-13.23-12.61-8.38-8.96-14.06-19.54-17.02-31.72-1.03-4.24-1.44-7.9-1.23-10.98.05-.62.59-1.09,1.21-1.04.11,0,.21.03.31.07l.41.15c.21.08.4.21.55.39,2.03,2.39,4.51,5.47,8.08,4.15,8.9-3.28,16.15-9.16,22.87-16.05,5.02-5.13,8.47-10.15,12.17-15.12,2.19-2.95,3.93-5.56,5.21-7.83,6.9-12.23,12.49-25.02,16.77-38.39.17-.53.39-1.04.66-1.53.76-1.38,2.65-3.83,5.68-7.34,1.74-2.02,2.17-4.39,1.3-7.12-.14-.45-.41-.84-.78-1.14-1.9-1.55-3.5-2.7-4.78-3.47-2.43-1.44-8.11-2.45-9.46-6.12-2.11-5.72-7.6-18.56-16.02-14.47-7.31,3.32-3.42,12.35-2.13,17.87.93,3.96,1.92,5.67,3.85,10.46,1,2.48,1.52,4.42,1.57,5.82.17,5.3-2.52,9.27-5.86,13.43-5.8,7.23-12.53,13.42-20.21,18.58-5.33,3.58-11.14,6.12-17.45,7.6-.42-2.41-.61-4.71-.55-6.9.2-8.31.38-16.11.54-23.4.24-11.24-.94-22.41-3.54-33.51-4.75-20.25-17.13-38.97-33.41-51.44-2.5-1.91-6.21-4.03-8.51-5.74-1.83-1.37-4.06-2.66-6.68-3.87-4-1.85-6.61-2.99-7.82-3.41-7.8-2.74-16.58-4.41-26.33-5.02-10.19-.63-20.46-.13-30.02,2.31-9,2.31-17.65,5.9-25.96,10.79ZM52.91,146.23c-6.74,1.48-9.69,8.58-9.18,14.84.56,6.93,6.02,14.38,11.16,19.15,2.46,2.87,4.39,4.75,5.81,5.62,2.35,1.46,4.47,2.98,6.36,4.57.49.41.55,1.15.14,1.64-.03.04-.07.07-.1.11-.95.88-2.14,1.27-3.55,1.17-4.33-.31-8.59-.78-12.77-1.4-4.72-.7-9.12-.43-13.2.81-3.12,1.3-5.16,3.24-6.11,5.83-1.07,2.93-.41,5.78,2,8.55,4.45,4.5,10.36,6.29,17.72,5.38,4.39-.54,8-1,10.84-1.4.99-.14,2.13,0,3.41.4.26.08.49.24.66.45,2.77,3.46,4.73,5.6,5.9,6.42,3.8,2.68,9.32,3.48,14.72,3.8.99.06,1.89.61,2.38,1.47,2.2,3.82,4.56,7.92,7.11,12.29,7.96,13.64,18.34,25.67,30.17,36.11,3.99,3.52,8.91,7.7,13.79,9.33.25.09.52-.05.61-.29.02-.06.03-.11.03-.17l-1.17-43.26c-.01-.32-.21-.61-.5-.74-4.22-1.84-8.34-4.18-12.38-7.01-5.35-4.17-10.05-8.72-14.09-13.64-.71-1.29-1.35-2.4-1.91-3.32-3.04-4.95-3.35-9.69-.9-14.22,1.85-3.43,5.9-6.88,7.93-10.45,3.03-5.32,4.54-10.97,4.51-16.95,0-1.22-.53-3.52-1.58-6.89-.13-.43-.36-.83-.68-1.16-5.71-6.01-11.81-1.63-15.57,3.74l-9.92,14.98c-.46.7-1.05,1.31-1.72,1.81-2.85,2.1-7.29,5.99-7.49,9.49-.13,2.18-.35,4.13-.67,5.84-.24,1.27-.98,2.09-2.23,2.49-.98-3.81-1.29-6.55-.95-8.23.99-4.91,4.34-7.86,7.22-10.41.01,0,.02-.01.03-.03l1.02-1.78c.28-.48.11-1.09-.36-1.36-.07-.04-.14-.07-.22-.09-6.37-1.9-10.44-3.74-13.63-9.7-3.41-6.37-13.62-25.21-22.61-23.76Z" fill="#190242"/><path d="M345.92,221.5c-1.86,1.35-4.47,1.87-7.82,1.57-2.61-.23-3.6-3.48-3.59-5.7.03-12.43-.07-29.09-1.13-43.79-.39-5.38-1.77-10.42-2.62-15.07-1.54-8.42-4.45-14.28-8.52-23.02-1.95-4.18-4.26-7.89-6.92-11.11-3.78-4.59-8.19-9.1-13.23-13.52-1.46-1.28-3.4-2.66-5.83-4.13-2.68-1.62-4.75-2.81-6.2-3.56-6-3.14-12.01-5.43-18.04-6.86-2.79-.67-5.33-.85-8.07-1.44-1.69-.36-3.72-.61-6.1-.75-11.49-.72-22.67-.07-33.52,1.95-1.49.27-5.31,1.44-11.46,3.49-.2.07-.39.18-.55.32-.29.26-.53.39-.71.39-2.65.05-5.32.4-7.99,1.06,8.31-4.89,16.96-8.48,25.96-10.79,9.56-2.44,19.83-2.95,30.02-2.31,9.75.61,18.53,2.28,26.33,5.02,1.21.42,3.81,1.56,7.82,3.41,2.62,1.21,4.85,2.5,6.68,3.87,2.31,1.71,6.01,3.83,8.51,5.74,16.29,12.47,28.66,31.18,33.41,51.44,2.6,11.09,3.78,22.26,3.54,33.51-.16,7.29-.34,15.09-.54,23.4-.05,2.19.13,4.49.55,6.9Z" fill="#d0d1e0"/><path d="M345.92,221.5c6.3-1.48,12.12-4.02,17.45-7.6,7.68-5.16,14.42-11.35,20.21-18.58,3.34-4.16,6.03-8.13,5.86-13.43-.05-1.39-.57-3.33-1.57-5.82-1.93-4.79-2.92-6.5-3.85-10.46-1.29-5.52-5.18-14.55,2.13-17.87,2.96,1.68,4.88,3.87,5.75,6.58,1.66,5.14,2.55,8,2.66,8.58.82,4,3.13,6.62,6.93,7.88.34.11.66.28.94.5,2.81,2.22,4.5,3.66,3.85,7.09-.36,1.88-2.64,4.05-4.39,6.15-.17.21-.32.45-.45.69-.62,1.25-.96,2.11-1.01,2.56-.76,6.52-.7,10.93-3.15,14.78-5.02,7.91-10.28,14.1-17.11,22.24-5.19,6.19-10.8,11.69-16.41,16.61-4.26,3.73-8.72,6.44-14.01,7.42-5.43,1-10.11,2.65-13.54,7.04-3.05,3.92-4.71,8.39-4.99,13.42-.57,10.6,1.64,19.42,6.61,27.9,5.24,8.92,12.29,16.71,21.16,23.38,3.57,2.69,6.07,4.78,9.79,7.36,5.19,3.6,10.65,7.77,16.38,12.51,3.89,3.21,5.1,7.25,3.64,12.1-3.21,10.61-17,16.43-27.13,16.38-9.4-.05-18.33-5.5-26.25-9.91-10.98-6.11-21.05-13.37-30.23-21.78-1.7-1.55-3.28-3.82-5.3-5.57-.43-.37-1.07-.33-1.44.1-.14.16-.23.37-.25.58-.14,1.59.14,3.32.84,5.18,1.53,4.06,3.22,7.75,5.08,11.07,3.54,6.35,6.66,12.93,9.93,20.24,2.63,5.86,4.12,9.59,4.46,11.18,1.89,8.6,2.08,20.65-5.75,25.98-2.64,1.79-4.82,2.93-6.53,3.42-3.11.89-6.8,1.42-11.07,1.6-7.27.29-14.85-.27-22.73-1.69-5.38-.98-10.22-2.48-14.49-4.52-7.58-3.61-14.15-7.66-19.72-12.16-3.07-2.49-6.38-5.32-9.91-8.49-.27-.24-.69-.22-.93.06-.16.19-.21.45-.12.68,2.15,5.37,6.61,10.79,9.06,14.89.61,1.03.78,2.07.49,3.1-.11.39-.47.65-.88.63-2.8-.14-5.77-.83-8.91-2.05-4.45-1.73-7.01-2.6-7.7-2.62-1.35-.04-2.07.51-2.16,1.66-.07.86-.34,1.42-.81,1.68-5.41-4.3-9.3-8.86-11.66-13.69-3.92-8.05-7.88-16.08-11.86-24.1-3.22-6.47-7.75-13.75-13.6-21.87l-4.53-18.73c-.05-.2-.26-.32-.47-.27-.11.03-.2.1-.24.2-.64,1.36-.89,2.76-.74,4.22.53,5.19.56,10.16,1.39,15.57,1.68,11,2.83,19.02,3.47,24.09.91,7.33,1.22,12.6.92,15.8-.68,7.21-4.85,13.68-11.98,15.75-.03.01-.88.14-2.55.37-1.29.18-2.34.77-3.15,1.78-4.24-2.07-7.47-4.61-9.68-7.64-7.52-10.29-8.31-21.1-7.03-33.52.82-8.01,3.49-17.99,3.76-23.97.89-19.49.54-37.26-1.05-53.28-3.09-31.19-2.23-63.15,2.47-93.37,2.85-18.3,8.41-35.2,16.68-50.7,4-7.48,9.91-15.36,17.72-23.64,1.04-1.1,3.15-2.96,6.33-5.58,4-3.29,8.56-5.62,13.07-8.24,2.68-.66,5.34-1.01,7.99-1.06.18,0,.42-.13.71-.39.16-.14.35-.25.55-.32,6.15-2.06,9.97-3.22,11.46-3.49,10.86-2.02,22.03-2.67,33.52-1.95,2.38.14,4.41.4,6.1.75,2.74.59,5.28.77,8.07,1.44,6.03,1.43,12.04,3.71,18.04,6.86,1.45.76,3.52,1.94,6.2,3.56,2.43,1.47,4.38,2.84,5.83,4.13,5.03,4.42,9.44,8.93,13.23,13.52,2.66,3.22,4.97,6.93,6.92,11.11,4.07,8.74,6.98,14.6,8.52,23.02.85,4.65,2.23,9.69,2.62,15.07,1.06,14.71,1.16,31.37,1.13,43.79,0,2.22.98,5.47,3.59,5.7,3.35.3,5.96-.22,7.82-1.57ZM304.17,138.61c.44,0,.79-.37.78-.81,0,0,0-.01,0-.02-.29-7.32-5.43-14.33-10.94-18.52-9.82-7.47-21.25-7.76-29.03,2.74-.94,1.27-1.54,2.69-1.79,4.26-.17,1.06.55,2.06,1.62,2.24h0c.4.06,1.08-.03,2.03-.29,6.63-1.82,12.49-2.68,18.58-.88,2.7.8,4.76,1.63,6.18,2.49,2.99,1.81,6.71,4.7,11.16,8.68.13.11.29.17.46.16l.94-.03ZM177.35,139.93c.26.59.96.84,1.57.57.04-.02.08-.04.12-.06,1.92-1.12,3.68-2.22,5.28-3.33,3.17-2.18,7.83-4.01,10.82-5.2,6.72-2.68,14-2.42,21.09-1.32.88.13,1.7-.45,1.85-1.31.21-1.12.08-2.33-.38-3.64-2.5-7.05-10.65-8.91-17.2-6.77-8.29,2.71-15.06,7.64-20.31,14.78-1.33,1.81-3.48,4.8-2.83,6.27ZM179.05,214.55c-8.07-2.08-15.11-.94-21.13,3.43-3.88,2.82-5.32,8.18-2.87,12.4,3.67,6.31,13.65,8.08,20.32,7.34,5.06-.57,9.26-2.33,12.58-5.3,2.89-2.58,3.53-6.19,1.93-10.82,15.83,8.84,28.07-6.84,31.84-20.16,1.97-6.95,2.76-14.11,2.37-21.47-.68-12.93-7.23-27.93-21.87-28.11-6.88-.09-12.77,2.87-17.26,7.82-9.68,10.68-13.39,24.93-11.82,39.12.25,2.31,1.13,5.64,2.63,9.98.79,2.29,1.87,4.21,3.26,5.76ZM287.03,221.54c-.13,2.02-.21,3.91-.22,5.69-.02,1.49.36,2.71,1.14,3.66,3.17,3.87,7.34,6.13,12.51,6.79,7.19.93,14.45-.16,19.76-5.23,3.81-3.63,3.83-9.35.36-12.93-2.88-2.96-6.51-4.79-10.91-5.49-3.63-.57-7.47-.44-11.51.41,8.96-12.1,11.61-28.73,7.53-42.81-1.44-4.97-3.55-9-6.33-12.09-6.85-7.62-15.31-9.11-25.39-4.47-1.57.72-3.17,1.85-4.81,3.4-5.87,5.52-9.94,11.99-12.2,19.4-2.61,8.55-3.32,17.78-1.88,26.41,2.64,15.76,16.61,26.73,31.95,17.26ZM200.51,240.17c-.05,2.55.51,5.56,1.66,9.03,3.83,11.59,9.02,20.58,17.83,27.33,8.9,6.82,20.77,8.48,31,3.56,7.29-3.5,12.44-8.78,15.78-16.56,4.43-10.33,6.58-20.86,6.43-31.58,0-.46-.38-.83-.84-.82-.11,0-.23.03-.33.08-22.64,10.29-46.27,13.1-70.87,8.43-.3-.06-.59.14-.65.44,0,.03,0,.06,0,.1Z" fill="#f4f3f4"/><path d="M304.17,138.61l-.94.03c-.17,0-.33-.05-.46-.16-4.45-3.98-8.17-6.87-11.16-8.68-1.42-.86-3.48-1.69-6.18-2.49-6.09-1.79-11.95-.94-18.58.88-.95.26-1.62.36-2.03.29-1.06-.17-1.79-1.17-1.62-2.23,0,0,0,0,0,0,.25-1.57.85-2.98,1.79-4.26,7.77-10.5,19.21-10.21,29.03-2.74,5.51,4.19,10.64,11.2,10.94,18.52.02.44-.32.81-.76.83,0,0-.01,0-.02,0Z" fill="#190242"/><path d="M177.35,139.93c-.64-1.47,1.51-4.46,2.83-6.27,5.25-7.14,12.02-12.07,20.31-14.78,6.55-2.14,14.71-.28,17.2,6.77.46,1.31.59,2.52.38,3.64-.16.86-.98,1.44-1.85,1.31-7.09-1.1-14.37-1.36-21.09,1.32-2.98,1.19-7.64,3.02-10.82,5.2-1.6,1.1-3.36,2.21-5.28,3.33-.57.34-1.3.16-1.63-.39-.02-.04-.04-.08-.06-.12Z" fill="#190242"/><path d="M82.42,201.59c-1.13.66-3.41,1.57-6.83,2.73-4.17,1.4-5.01,6.21-1.92,9.51,3.04,3.23,7.93,2.79,13.4,2.84,2.31.02,4,1,5.09,2.92,2.3,4.07,4.07,6.98,5.31,8.74,2.14,3.05,5.45,7.05,9.91,11.99,3.38,3.74,6.73,6.08,10.43,8.43,2.06,1.33,4.91,2.84,7.07.96,5.16-4.49,4.11-11.52,1.68-17.12-.1-.24-.14-.5-.1-.75l.28-1.96c4.03,2.83,8.16,5.17,12.38,7.01.3.13.49.41.5.74l1.17,43.26c0,.26-.2.48-.46.49-.06,0-.12,0-.17-.03-4.88-1.62-9.8-5.81-13.79-9.33-11.83-10.43-22.21-22.46-30.17-36.11-2.54-4.37-4.91-8.46-7.11-12.29-.49-.86-1.39-1.41-2.38-1.47-5.4-.33-10.92-1.13-14.72-3.8-1.17-.83-3.13-2.97-5.9-6.42-.17-.21-.4-.37-.66-.45-1.28-.4-2.41-.54-3.41-.4-2.84.39-6.46.86-10.84,1.4-7.36.91-13.27-.89-17.72-5.38,1.53-.07,2.78-.04,3.74.08.86.11,1.79.35,2.79.71,1.35.49,2.26.79,2.74.91,7.15,1.74,13.39.25,18.74-4.48,3.01-2.66.95-4.97-1.93-6.32-5.26-2.46-10.52-4.03-15.76-4.73-.24-.03-.47-.13-.66-.29-.68-.54-1.52-.71-2.5-.51-1.13.23-2.15.31-3.04.25,4.08-1.24,8.48-1.51,13.2-.81,4.18.62,8.44,1.08,12.77,1.4,1.42.1,2.6-.29,3.55-1.17.47-.43.5-1.17.07-1.64-.03-.04-.07-.07-.11-.1-1.9-1.59-4.02-3.11-6.36-4.57-1.42-.88-3.35-2.75-5.81-5.62l3.67.34c.22.02.42.1.6.23,1.23.88,2.69,2.03,4.37,3.44,1.66,1.4,3.81,2.66,6.43,3.78,3.67,1.56,7.9.42,8.34-4.03.22-2.24-.2-4.05-1.25-5.43-2.09-2.74-3.52-4.64-4.3-5.68-.36-.48-.65-1-.87-1.55-1.87-4.74-4.21-9.27-7.02-13.59-.14-.21-.31-.41-.49-.6-1.68-1.67-2.55-2.58-2.62-2.74-.22-.49-.97-1.3-2.24-2.44-.8-.72-1.45-1.63-1.93-2.73-.12-.27-.31-.49-.55-.64-.63-.4-1.2-1.01-1.71-1.8-.14-.22-.38-.36-.63-.38l-1.77-.16c8.99-1.45,19.2,17.39,22.61,23.76,3.19,5.96,7.26,7.8,13.63,9.7.53.16.83.71.67,1.24-.02.08-.05.15-.09.22l-1.02,1.78s-.01.02-.03.03c-2.88,2.55-6.23,5.49-7.22,10.41-.34,1.68-.02,4.43.95,8.23Z" fill="#d0d1e0"/><path d="M52.91,146.23l1.77.16c.26.02.49.16.63.38.51.8,1.08,1.4,1.71,1.8.24.15.44.38.55.64.49,1.1,1.13,2.01,1.93,2.73,1.28,1.14,2.03,1.96,2.24,2.44.06.16.94,1.07,2.62,2.74.18.18.35.38.49.6,2.81,4.32,5.15,8.85,7.02,13.59.22.55.51,1.07.87,1.55.78,1.04,2.21,2.93,4.3,5.68,1.05,1.38,1.47,3.18,1.25,5.43-.44,4.45-4.66,5.59-8.34,4.03-2.62-1.12-4.77-2.37-6.43-3.78-1.68-1.42-3.14-2.56-4.37-3.44-.18-.13-.38-.21-.6-.23l-3.67-.34c-5.14-4.77-10.6-12.21-11.16-19.15-.51-6.26,2.44-13.36,9.18-14.84Z" fill="#f4f3f4"/><path d="M216.37,402.17c.47-.26.75-.82.81-1.68.09-1.14.81-1.7,2.16-1.66.68.02,3.25.89,7.7,2.62,3.14,1.22,6.11,1.91,8.91,2.05.41.02.77-.24.88-.63.28-1.03.12-2.07-.49-3.1-2.44-4.1-6.91-9.52-9.06-14.89-.13-.34.03-.72.37-.86.23-.09.49-.05.68.12,3.54,3.17,6.84,6,9.91,8.49,5.56,4.5,12.14,8.55,19.72,12.16,4.28,2.03,9.11,3.54,14.49,4.52,7.89,1.42,15.46,1.98,22.73,1.69,4.26-.18,7.95-.71,11.07-1.6,1.71-.49,3.89-1.63,6.53-3.42,7.83-5.33,7.64-17.39,5.75-25.98-.35-1.59-1.83-5.32-4.46-11.18-3.28-7.31-6.4-13.88-9.93-20.24-1.85-3.32-3.55-7.01-5.08-11.07-.7-1.86-.99-3.59-.84-5.18.05-.56.54-.98,1.11-.93.22.02.42.11.58.25,2.03,1.75,3.61,4.02,5.3,5.57,9.18,8.41,19.25,15.67,30.23,21.78,7.92,4.4,16.85,9.85,26.25,9.91,10.12.05,23.92-5.77,27.13-16.38,1.46-4.85.25-8.89-3.64-12.1-5.73-4.74-11.19-8.91-16.38-12.51-3.73-2.58-6.22-4.67-9.79-7.36-8.86-6.67-15.92-14.47-21.16-23.38-4.97-8.48-7.18-17.3-6.61-27.9.28-5.03,1.94-9.51,4.99-13.42,3.43-4.39,8.11-6.04,13.54-7.04,5.3-.98,9.75-3.69,14.01-7.42,5.61-4.91,11.21-10.42,16.41-16.61,6.83-8.14,12.09-14.33,17.11-22.24,2.44-3.85,2.38-8.26,3.15-14.78.05-.45.39-1.3,1.01-2.56.13-.25.28-.48.45-.69,1.74-2.11,4.03-4.27,4.39-6.15.65-3.43-1.04-4.87-3.85-7.09-.28-.22-.6-.39-.94-.5-3.8-1.25-6.11-3.88-6.93-7.88-.12-.58-1-3.44-2.66-8.58-.87-2.71-2.79-4.9-5.75-6.58,8.42-4.08,13.9,8.75,16.02,14.47,1.35,3.67,7.04,4.68,9.46,6.12,1.29.76,2.88,1.92,4.78,3.47.37.29.64.69.78,1.14.87,2.72.44,5.09-1.3,7.12-3.02,3.51-4.91,5.96-5.68,7.34-.27.49-.49,1-.66,1.53-4.28,13.37-9.87,26.17-16.77,38.39-1.28,2.27-3.02,4.88-5.21,7.83-3.7,4.97-7.15,9.99-12.17,15.12-6.73,6.89-13.97,12.77-22.87,16.05-3.57,1.32-6.05-1.76-8.08-4.15-.15-.18-.34-.31-.55-.39l-.41-.15c-.58-.22-1.23.08-1.45.66-.04.1-.06.2-.07.31-.21,3.08.2,6.74,1.23,10.98,2.96,12.19,8.64,22.76,17.02,31.72,2.84,3.04,7.25,7.24,13.23,12.61,3.83,3.44,6.97,5.95,9.41,7.51,4.09,2.62,11.49,6.92,22.2,12.9,4.01,2.24,5.77,5.77,5.27,10.62-.27,2.64-.74,4.74-1.41,6.29-6.29,14.62-20.73,24.45-36.05,28.26-1.86.46-4.63.82-8.3,1.07-8.04.56-14.68-1.01-21.64-5.18-12.63-7.55-21.04-16.66-33.01-29.16-1.02-1.07-1.78-2.74-2.94-3.29-.13-.06-.29,0-.36.13-.04.08-.03.16,0,.24,1.16,2.25,2.35,4.1,3.6,5.55,4.45,5.16,8.43,10.79,12.63,16.06,5.28,6.63,8.79,12.74,11.5,20.33.5,1.39.73,3.16.71,5.32-.08,6.36-.81,11.66-4.84,16.56-3.21,3.9-7.42,6.85-12.64,8.84-10.16,3.88-20.8,4.58-31.91,2.1-5.04-1.13-12.11-3.67-18.13-5.05-5.7-1.3-15.07-3.03-28.11-5.19-8.31-1.38-16-4.6-23.09-9.65Z" fill="#d0d1e0"/><path d="M189.9,221.6c-1.33-1.72-3.26-3.29-5.76-4.72-1.92-1.1-3.62-1.88-5.08-2.32-1.39-1.55-2.47-3.48-3.26-5.76-1.5-4.34-2.37-7.67-2.63-9.98-1.57-14.19,2.14-28.44,11.82-39.12,4.49-4.95,10.37-7.9,17.26-7.82,14.64.17,21.19,15.18,21.87,28.11.39,7.36-.4,14.52-2.37,21.47-3.77,13.32-16.02,29-31.84,20.16ZM199.4,162.86c-3.7-2.08-9.37,1-12.67,6.86,0,0,0,0,0,0-3.29,5.87-2.96,12.31.74,14.39h0c3.7,2.08,9.37-1,12.67-6.86,0,0,0,0,0,0,3.29-5.87,2.96-12.31-.74-14.39h0ZM213.37,177.5c-2.67-.38-5.23,2.03-5.7,5.38h0c-.48,3.35,1.3,6.37,3.98,6.76h0c2.67.38,5.23-2.03,5.7-5.38h0c.48-3.35-1.3-6.37-3.98-6.76h0ZM210.31,205.3c-.51,1.46.41,3.1,2.04,3.67,0,0,0,0,0,0,1.63.57,3.37-.16,3.87-1.62h0c.51-1.46-.41-3.1-2.04-3.67h0c-1.63-.57-3.37.16-3.87,1.62,0,0,0,0,0,0ZM211.54,214.37c-.17-3.15-4.69-5.47-10.11-5.17h0c-5.41.29-9.66,3.08-9.49,6.23h0c.17,3.15,4.69,5.47,10.11,5.17h0c5.41-.29,9.66-3.08,9.49-6.23h0Z" fill="#190242"/><path d="M298.15,214.45c-3.1,1.28-5.24,2.28-6.41,3-1.5.92-3.07,2.28-4.71,4.09-15.35,9.47-29.31-1.49-31.95-17.26-1.44-8.62-.73-17.85,1.88-26.41,2.26-7.41,6.33-13.87,12.2-19.4,1.64-1.55,3.24-2.68,4.81-3.4,10.08-4.63,18.55-3.14,25.39,4.47,2.78,3.09,4.89,7.12,6.33,12.09,4.08,14.07,1.43,30.71-7.53,42.81ZM280.01,164.8c-3.77-2.11-9.49.96-12.79,6.85-3.29,5.89-2.91,12.37.86,14.48h0c3.77,2.11,9.49-.96,12.79-6.85,3.29-5.89,2.91-12.37-.86-14.48h0ZM295.97,178.7c-2.72-.29-5.21,2.23-5.57,5.61h0c-.36,3.38,1.56,6.36,4.28,6.65h0c2.72.29,5.21-2.23,5.57-5.61.36-3.38-1.56-6.36-4.28-6.65h0ZM270.31,204.57c-.5-1.43-2.19-2.14-3.78-1.59-1.59.56-2.46,2.17-1.96,3.6.5,1.43,2.19,2.14,3.78,1.59,1.59-.56,2.46-2.17,1.96-3.6ZM266.29,211.98c-1.16,1.54-2.4,3.7-.55,5.18,3.77,3.02,7.66,4.18,11.68,3.48,1.88-.33,4.21-1.55,5.14-3.04,2.71-4.32-1.89-7.35-5.67-7.64-3.23-.25-6.46.2-9.7,1.37-.36.13-.68.36-.9.66Z" fill="#190242"/><path d="M97.03,157.85l-3.69,7.72c-.14.28-.06.62.18.75.06.03.12.05.18.05.31.02.62.65.94,1.9l-2.83,3.53c-.16.2-.39.33-.65.36-2.31.3-4.56.09-6.73-.64l5.7-3.49c.18-.11.33-.25.43-.42l6.46-9.76Z" fill="#d0d1e0"/><path d="M112.65,216.25c-6.26-.57-10.05-4-11.37-10.29-.94-4.45-.55-10.1,3.03-13.21,2.7-2.35,4.47-4.13,5.32-5.34,3.54-5.03,4.27-10.58,2.2-16.63-.42-1.21-.95-2.09-1.61-2.63-2.02-1.66-3.86-.64-5.77-1.17,3.76-5.36,9.86-9.75,15.57-3.74.31.33.54.73.68,1.16,1.05,3.37,1.57,5.67,1.58,6.89.03,5.98-1.47,11.63-4.51,16.95-2.03,3.57-6.08,7.02-7.93,10.45-2.44,4.53-2.14,9.27.9,14.22.56.92,1.2,2.03,1.91,3.32Z" fill="#d0d1e0"/><ellipse cx="193.43" cy="173.49" rx="12.19" ry="7.69" transform="translate(-52.52 257.27) rotate(-60.7)" fill="#f4f3f4"/><ellipse cx="274.05" cy="175.47" rx="12.22" ry="7.82" transform="translate(-12.82 329.09) rotate(-60.8)" fill="#f4f3f4"/><path d="M104.45,166.99c1.92.53,3.75-.49,5.77,1.17.66.54,1.2,1.41,1.61,2.63,2.07,6.06,1.33,11.6-2.2,16.63-.85,1.21-2.62,2.99-5.32,5.34-3.59,3.11-3.97,8.76-3.03,13.21,1.32,6.29,5.11,9.72,11.37,10.29,4.04,4.92,8.74,9.47,14.09,13.64l-.28,1.96c-.04.25,0,.52.1.75,2.43,5.6,3.48,12.63-1.68,17.12-2.16,1.88-5.01.36-7.07-.96-3.7-2.36-7.05-4.69-10.43-8.43-4.46-4.94-7.76-8.94-9.91-11.99-1.24-1.76-3.01-4.68-5.31-8.74-1.09-1.92-2.78-2.9-5.09-2.92-5.47-.05-10.36.39-13.4-2.84-3.09-3.29-2.25-8.1,1.92-9.51,3.42-1.16,5.7-2.07,6.83-2.73,1.25-.39,1.99-1.22,2.23-2.49.32-1.72.54-3.66.67-5.84.2-3.5,4.64-7.39,7.49-9.49.68-.5,1.26-1.11,1.72-1.81l9.92-14.98Z" fill="#f4f3f4"/><ellipse cx="212.51" cy="183.57" rx="6.13" ry="4.89" transform="translate(.83 368.09) rotate(-81.9)" fill="#f4f3f4"/><ellipse cx="295.33" cy="184.83" rx="6.16" ry="4.95" transform="translate(80.64 459.22) rotate(-84)" fill="#f4f3f4"/><path d="M33.46,207.11c-2.41-2.77-3.08-5.62-2-8.55.95-2.59,2.99-4.53,6.11-5.83.9.06,1.91-.03,3.04-.25.99-.2,1.82-.03,2.5.51.19.15.42.25.66.29,5.25.7,10.5,2.28,15.76,4.73,2.89,1.35,4.94,3.66,1.93,6.32-5.34,4.73-11.59,6.23-18.74,4.48-.48-.12-1.39-.42-2.74-.91-1.01-.36-1.94-.6-2.79-.71-.96-.12-2.21-.15-3.74-.08Z" fill="#f4f3f4"/><ellipse cx="267.44" cy="205.57" rx="3.04" ry="2.75" transform="translate(-52.91 99.95) rotate(-19.3)" fill="#2ea8dd"/><ellipse cx="213.26" cy="206.33" rx="2.8" ry="3.13" transform="translate(-51.49 340.33) rotate(-70.9)" fill="#2ea8dd"/><ellipse cx="201.74" cy="214.9" rx="9.81" ry="5.71" transform="translate(-11.33 11.22) rotate(-3.1)" fill="#2ea8dd"/><path d="M266.29,211.98c.23-.3.54-.53.9-.66,3.24-1.17,6.47-1.62,9.7-1.37,3.78.29,8.38,3.32,5.67,7.64-.93,1.49-3.26,2.71-5.14,3.04-4.02.7-7.92-.45-11.68-3.48-1.85-1.48-.61-3.64.55-5.18Z" fill="#2ea8dd"/><path d="M179.05,214.55c1.46.44,3.15,1.22,5.08,2.32,2.51,1.43,4.43,3.01,5.76,4.72,1.6,4.63.96,8.24-1.93,10.82-3.33,2.97-7.52,4.74-12.58,5.3-6.67.74-16.65-1.03-20.32-7.34-2.45-4.22-1.01-9.59,2.87-12.4,6.02-4.37,13.06-5.51,21.13-3.43Z" fill="#f65175"/><path d="M287.03,221.54c1.64-1.81,3.21-3.17,4.71-4.09,1.17-.72,3.31-1.72,6.41-3,4.04-.84,7.88-.98,11.51-.41,4.4.69,8.03,2.52,10.91,5.49,3.48,3.58,3.46,9.3-.36,12.93-5.31,5.07-12.57,6.15-19.76,5.23-5.17-.66-9.33-2.93-12.51-6.79-.78-.95-1.16-2.17-1.14-3.66.01-1.78.08-3.68.22-5.69Z" fill="#f65175"/><path d="M353.16,212.57c.8-.14,1.64-.44,2.53-.92,5.74-3.06,10.61-6.64,14.61-10.74,2.96-3.03,6.3-6.94,10.02-11.71,3-3.86,3.53-7.88,1.58-12.06-2.65-5.67-4.61-11.31-5.88-16.9-1.9-8.37.78-14.51,8.03-18.44-1.38-.88-2.91-1.4-4.61-1.55-.28-.02-.55-.13-.77-.32-1.14-.95-2.56-1.09-3.24-2.41-3.08-5.92-3.7-12.09-1.87-18.51.2-.7,1.11-3.15,2.72-7.35,1.01-2.63,1.43-5.45.42-7.61-3.24-6.94-10.93-4.45-14.82.04-3.03,3.5-6.31,8.13-10.69,10.78-5.1,3.09-10.21,2.96-15.34-.38-.3-.2-.57-.45-.79-.74-.87-1.16-1.74-1.97-2.63-2.44-.3-.17-.56-.39-.78-.65-.96-1.2-2.22-2.26-3.76-3.17-.04-.02-.04-.04,0-.04.14,0,.25-.02.3-.04.03-.01.05-.03.07-.05.1-.09.1-.24.02-.33l-3.76-4.05s-.1-.06-.16-.05c-.1.02-.17.11-.15.21,0,.03.03.09.09.16,0,.01,0,.03,0,.04,0,.02-.03.02-.05.01-.02,0-.03,0-.05,0-.01,0-.02,0-.03,0-.05-.01-.09-.07-.08-.14.04-.46-.17-.84-.63-1.16-.02-.01-.03-.02-.05-.02-.08-.01-.15.03-.16.11-.02.08.05.17.21.26.02.01.03.04.01.06-.02.02-.05.03-.07.02-.02,0-.04,0-.06,0,0,0-.02,0-.03,0-.04,0-.08-.06-.08-.12-.02-.42-.11-.77-.28-1.05-.07-.12-.22-.18-.35-.16-.15.03-.23.16-.17.3.02.07.05.16.08.27,0,.02,0,.04-.02.06-.03.04-.08.05-.12.02-.58-.54-.84-.92-.79-1.13.05-.22-.02-.45-.2-.6-2.27-1.88-3.72-2.97-4.35-3.28-.64-.32-1.12-.85-1.43-1.59-.2-.49-.74-1.11-1.6-1.88-.2-.18-.48-.21-.71-.08-.38.21-.66.12-.84-.25-.02-.02-.02-.06,0-.09.02-.02.06-.02.09,0l.25.15c.05.03.12.03.17,0,.07-.05.1-.15.05-.23-.43-.7-1.44-1.31-3.01-1.83-.25-.08-1.93-1.19-5.03-3.32-.86-.6-1.72-.94-2.57-1.02-.24-.02-.47-.09-.68-.19-.18-.1-1.16-.68-2.94-1.74-.87-.53-1.85-1-2.95-1.42-1.17-.44-4-1.47-8.5-3.09-.25-.09-.5-.15-.75-.18-2.66-.39-4.96-1.41-7.44-1.92-6.19-1.27-11.93-2.6-17.36-2.96-14.31-.92-28.22.92-41.72,5.5-.29.1-.6.14-.9.12-1.92-.13-3.49.26-4.69,1.17-1.36,1.03-2.41,1.54-3.15,1.52-.18-.01-.41.14-.68.45-.18.21-.4.37-.65.48-3.69,1.55-6.51,2.89-8.46,4.03-3.78,2.21-10.8,6.31-15.64,10.25-8.6,6.99-15.86,14.93-21.77,23.83-1.86,2.81-3.24,4.49-4.14,5.04-6.34,3.89-14.72.36-19.46-4.59-2.3-2.4-4.84-5.6-7.82-5.99-1.45-.19-2.4.16-2.85,1.04-1.82,3.61-4.63,7.7-8.62,8.61-11.78,2.69-23.58-6.73-30.59-15.36-7.04-8.65-12.52-18.93-18.01-29.22-2.8-5.23-5.99-10.12-11.79-12.08-8.38-2.84-17.32,2.34-19.13,10.97-2.1,9.98,5.28,16.83,13.79,20.42,7.89,3.33,14.9,6.53,21.05,9.6,10.02,5,23.09,16.28,24.56,28.43.54,4.43.66,8.01.36,10.73-.13,1.21-.76,2.34-1.89,3.38-.1.1-.19.21-.26.33l-2.27,4.03-3.69,7.72c-.03.07-.05.14-.06.22-.03.31.16.58.43.59.31.02.62.65.94,1.9,2.87-3.35,5.74-6.53,8.6-9.53,3.64-3.84,8.48-6.1,13.75-5,12.87,2.7,13.18,20.1,9.93,29.51-1.8,5.2-4.45,9.66-7.95,13.39-1.9,2.02-3.03,3.54-3.41,4.57-1.51,4.08-.82,7.9,2.09,11.44,5.22,6.36,11.4,11.39,18.56,15.1.05.03.11.05.17.05.25.02.47-.17.48-.41.35-4.38.93-9.94,1.72-16.67,1.69-14.36,3.83-26.48,6.41-36.37,1.69-6.48,3.62-12.43,5.77-17.85,2.99-7.51,6.23-14.57,9.74-21.19,2.1-3.98,4.13-7.27,6.09-9.85,3.24-4.3,5.97-8.65,9.37-12.32,16.06-17.3,38.7-30.2,62.23-32.78,9.75-1.06,19.46-1.03,29.12.1,10.5,1.23,20.62,4.29,30.33,9.17,9.67,4.86,18.3,10.99,25.88,18.38,16.07,15.66,25.67,34.49,28.82,56.5.53,3.71.84,8.24.92,13.58.09,5.55.04,10.09-.16,13.62-.62,11.32-.94,18-.94,20.04,0,.05,0,.1.01.15.08.46.51.76.97.68Z" fill="#00b8db"/><path d="M479.3,324.51c-2.59-1.83-4.82-2.98-6.68-3.43-16.31-4.03-25.87-6.56-28.7-7.58-4.51-1.62-8.6-3.51-12.27-5.66-11.13-6.51-21.81-21.58-10.86-33.84.79-.88,2.12-1.91,3.99-3.07,5.06-3.13,10.23-6.03,13.99-10.6,5.59-6.78,7.42-14.56,5.48-23.34-3.09-13.94-18.71-17.13-19.34-31.91-.26-6.12,3.39-9.67,5.89-13.82,2.91-4.82-1.32-7.17-4.93-8.94-1.2-.6-2.14-.42-2.81.53-.33.47-.95.61-1.43.32-.06-.04-.1-.18-.13-.42l-6.08,7.7c-.27.34-.46.73-.57,1.15-2.03,7.78-4.86,15.4-8.47,22.85-4.06,8.4-6.24,12.85-6.53,13.37-3.43,6.14-7.81,12.73-13.13,19.75-2.73,3.61-7.26,8.32-10.1,10.96-7.04,6.59-14.91,11.82-23.61,15.71-.35.16-.54.54-.46.92,3.58,15.84,15.34,30.05,27.73,40.47,2.1,1.77,5.91,4.63,11.43,8.58,2.24-3.55,4.87-6.36,7.9-8.42,7.64-5.17,16.51-5.36,25.08-2.56,3.35,1.09,6.68,3.11,10.01,6.04,4.95,4.37,8.39,7.9,10.34,10.59,5.86,8.08,8.98,12.35,9.34,12.82,4.48,5.75,10.95,10.69,18.63,8.57,4.04-1.12,7.1-3.02,9.19-5.7,5.1-6.56,4.17-16.09-2.89-21.05Z" fill="#00b8db"/><path d="M140.07,292.11c-.04-.64-.38-1.22-.91-1.56-13.68-8.8-25.42-19.54-35.22-32.21-6.12-7.9-11.21-15.4-14.88-23.55-.16-.35-.98-1.8-2.45-4.35-.62-1.07-1.67-1.82-2.89-2.07l-6.57-1.36c.54.73-.06,1.38-1.81,1.94-.51.17-.97.44-1.35.81-1.57,1.52-3.13,2.69-4.69,3.5-6.91,3.6-2.61,7.62.46,11.58,5.03,6.51,2.93,15.43-2.78,21.06-3.74,3.69-8.88,10.42-1,13.29,9.29,3.4,16.21,8.63,20.67,17.73,2.04,4.15,3.21,8.19,3.51,12.11.99,12.98-4.58,26.36-12.01,37.12-3.07,4.46-7.46,9.22-13.16,14.29-8.63,7.68-17,13.52-27.86,21.17-7.7,5.43-12.2,15.56-6.4,23.8,7.22,10.26,22.12,9.73,27.51-2.01,1.11-2.41,1.74-3.88,1.9-4.41,3.91-13.32,7.44-28.18,16.54-38.62,6.47-7.44,17.19-12.57,26.96-10.15,9.65,2.38,16.45,8.25,20.38,17.62,1.64,3.9,1.23,15.09,7.02,15.71,2.01.22,5.02.1,7.31-.44-1.81-6.81-2.15-14-1.03-21.57.85-5.74,1.39-9.27,1.62-10.59,2.15-12.51,2.96-26.3,2.4-36.92-.46-8.56-.88-15.87-1.27-21.94Z" fill="#00b8db"/><path d="M201.17,239.63c24.6,4.67,48.23,1.86,70.87-8.43.41-.19.9,0,1.09.41.05.11.07.22.08.34.14,10.72-2,21.25-6.43,31.58-3.35,7.78-8.49,13.06-15.78,16.56-10.24,4.91-22.1,3.26-31-3.56-8.81-6.75-14-15.74-17.83-27.33-1.15-3.47-1.7-6.48-1.66-9.03,0-.31.26-.55.56-.55.03,0,.06,0,.1,0ZM263.94,261.44c.32-.65.13-1.45-.47-1.87-3.48-2.5-7.36-4.02-11.64-4.56-8.9-1.12-16.98.81-24.22,5.81-2.37,1.63-7.26,6.16-7.1,9.39.12,2.32,3.27,4.84,5.29,5.82,6.01,2.89,12.17,3.6,18.5,2.12,8.84-2.07,15.62-8.51,19.64-16.72Z" fill="#190242"/><path d="M263.94,261.44c-4.02,8.21-10.8,14.65-19.64,16.72-6.32,1.48-12.49.77-18.5-2.12-2.02-.98-5.17-3.5-5.29-5.82-.16-3.23,4.72-7.77,7.1-9.39,7.24-4.99,15.31-6.93,24.22-5.81,4.28.54,8.16,2.06,11.64,4.56.59.43.79,1.22.47,1.87Z" fill="#f65175"/><path d="M179.25,342.51l-.84-1.02c-.15-.18-.41-.2-.59-.06-.1.08-.15.2-.15.33.1,4.1,1.19,7.46,3.06,11.05,6.45,12.35,12.24,24.22,17.36,35.59.79,1.75,1.82,3.27,2.89,4.91.34.51.19,1.2-.32,1.54-.03.02-.06.04-.09.05-6.06,3.21-12.68,5.62-19.85,7.21-6.84,1.53-13.29,1.25-19.36-.83.81-1.01,1.87-1.6,3.15-1.78,1.66-.24,2.51-.36,2.55-.37,7.12-2.07,11.3-8.54,11.98-15.75.3-3.2,0-8.47-.92-15.8-.64-5.06-1.79-13.09-3.47-24.09-.82-5.41-.86-10.37-1.39-15.57-.15-1.46.1-2.86.74-4.22.09-.19.32-.27.51-.17.1.05.17.14.2.24l4.53,18.73Z" fill="#d0d1e0"/></svg>